<?xml version="1.0" encoding="utf-8"?>
<!-- Generator: Adobe Illustrator 23.0.3, SVG Export Plug-In . SVG Version: 6.00 Build 0)  -->
<svg version="1.1" id="Layer_1" xmlns="http://www.w3.org/2000/svg" xmlns:xlink="http://www.w3.org/1999/xlink" x="0px" y="0px"
	 viewBox="0 0 31.5 31.5" style="enable-background:new 0 0 31.5 31.5;" xml:space="preserve">
<style type="text/css">
	.st0{clip-path:url(#SVGID_2_);fill:#6E4D42;}
	.st1{clip-path:url(#SVGID_2_);fill:#C62B29;}
	.st2{clip-path:url(#SVGID_2_);fill:#E57374;}
	.st3{clip-path:url(#SVGID_2_);fill:#8D6E64;}
	.st4{clip-path:url(#SVGID_2_);fill:#B52025;}
	.st5{clip-path:url(#SVGID_2_);fill:#D32E2F;}
	.st6{clip-path:url(#SVGID_2_);fill:#E63B35;}
</style>
<g>
	<defs>
		<rect id="SVGID_1_" x="9" y="8.8" width="13.6" height="13.9"/>
	</defs>
	<clipPath id="SVGID_2_">
		<use xlink:href="#SVGID_1_"  style="overflow:visible;"/>
	</clipPath>
	<path class="st0" d="M18.9,16.1c0-0.1-0.1-0.1-0.1-0.1v0c-0.2-0.5-0.4-1-0.6-1.4c0-0.1-0.1-0.1-0.1-0.2c0-0.1-0.1-0.1-0.1-0.2
		c-0.8-1.8-1.5-3-1.9-3.4c-0.1-0.1-0.2-0.2-0.4-0.2c-0.1,0-0.3,0-0.4,0.2c-0.4,0.5-1.1,1.6-1.9,3.4c0,0.1-0.1,0.1-0.1,0.2
		c0,0.1-0.1,0.1-0.1,0.2c-0.2,0.4-0.4,0.9-0.6,1.4v0c0,0,0,0.1-0.1,0.1c-0.2,0.4-0.7,1.7-1,2.2l0.4-0.2c0.5-0.2,1.1-0.4,1.6-0.6l0,0
		c0-0.1,0.3-0.7,0.3-0.8c0.1-0.3,0.2-0.5,0.3-0.8c0,0,0,0,0-0.1c0.1-0.3,0.2-0.5,0.3-0.7c0-0.1,0-0.1,0.1-0.2c0-0.1,0.1-0.2,0.1-0.2
		c0.1-0.1,0.1-0.2,0.1-0.3c0.1-0.1,0.1-0.3,0.2-0.4c0.1-0.2,0.2-0.4,0.3-0.6c0-0.1,0.1-0.1,0.1-0.2c0.1-0.2,0.2-0.3,0.2-0.5
		c0-0.1,0.1-0.2,0.1-0.2c0,0,0.1,0.1,0.1,0.2c0.1,0.1,0.1,0.3,0.2,0.5c0,0.1,0.1,0.1,0.1,0.2c0.1,0.2,0.2,0.4,0.3,0.6
		c0.1,0.1,0.1,0.3,0.2,0.4c0,0.1,0.1,0.2,0.1,0.3c0,0.1,0.1,0.2,0.1,0.2c0,0.1,0,0.1,0.1,0.2c0.1,0.2,0.2,0.5,0.3,0.7c0,0,0,0,0,0.1
		c0.1,0.2,0.2,0.5,0.3,0.8c0,0.1,0.3,0.7,0.3,0.8l0,0c0.5,0.2,1.1,0.4,1.6,0.6l0.4,0.2C19.6,17.8,19.1,16.5,18.9,16.1"/>
	<path class="st1" d="M13.2,19.4C13,20.7,13,22,13,22l-1,0.7h-1.7l1-3.3H13.2z"/>
	<path class="st2" d="M13,19.4c-0.4,1-0.7,2.2-1.1,3.3h-1.7l1-3.3H13z"/>
	<path class="st1" d="M21.3,22.7h-1.7l-1-0.7c0,0,0-2-0.5-3.5c0,0,0,0,0,0h2L21.3,22.7z"/>
	<path class="st3" d="M18,14.1c0,0.1,0.1,0.1,0.1,0.2c0,0.1,0.1,0.1,0.1,0.2c0.2,0.4,0.4,0.9,0.6,1.4v0c0,0,0,0.1,0.1,0.1
		c0,0.1,0.1,0.1,0.1,0.2c0,0,0,0,0,0.1c0,0.1,0.1,0.1,0.1,0.2c0,0,0,0.1,0.1,0.1c0.1,0.3,0.3,0.6,0.4,0.9c0,0.1,0.1,0.2,0.1,0.3
		c0,0.1,0,0.1,0.1,0.2c0,0.1,0.1,0.2,0.1,0.3l-0.4-0.2c-0.5-0.2-1.1-0.4-1.6-0.6c-0.1-0.4-0.3-0.7-0.3-0.8c-0.1-0.3-0.2-0.5-0.3-0.8
		c0,0,0,0,0-0.1c-0.1-0.3-0.2-0.5-0.3-0.7c0-0.1,0-0.1-0.1-0.2c0-0.1-0.1-0.2-0.1-0.2c-0.1-0.1-0.1-0.2-0.1-0.3
		c-0.1-0.1-0.1-0.3-0.2-0.4c-0.1-0.2-0.2-0.4-0.3-0.6c0-0.1-0.1-0.1-0.1-0.2c-0.1-0.2-0.2-0.3-0.2-0.5L18,14.1z"/>
	<path class="st2" d="M21.3,22.7h-1.7c-0.4-1.5-0.9-2.9-1.4-4.3c0,0,0,0,0,0H20L21.3,22.7z"/>
	<path class="st4" d="M19,16.3L18.9,16l-0.3,0.1c-1.4,0.3-4.1,1.1-6.6,2.1l-0.4,0.2l-0.1,0.1c-0.2,0.5-0.5,1.1-0.7,1.6l0.4-0.1
		c0,0,2.2-0.6,8.3-1.4l0.3,0C19.7,17.8,19.3,17,19,16.3"/>
	<path class="st3" d="M13.5,14.1c0,0.1-0.1,0.1-0.1,0.2c0,0.1-0.1,0.1-0.1,0.2c-0.2,0.4-0.4,0.9-0.6,1.4v0c0,0,0,0.1-0.1,0.1
		c0,0.1-0.1,0.1-0.1,0.2c0,0,0,0,0,0.1c0,0.1-0.1,0.1-0.1,0.2c0,0,0,0.1-0.1,0.1c-0.1,0.3-0.3,0.6-0.4,0.9c0,0.1-0.1,0.2-0.1,0.3
		c0,0.1,0,0.1-0.1,0.2c0,0.1-0.1,0.2-0.1,0.3l0.4-0.2c0.5-0.2,1.1-0.4,1.6-0.6c0.1-0.4,0.3-0.7,0.3-0.8c0.1-0.3,0.2-0.5,0.3-0.8
		c0,0,0,0,0-0.1c0.1-0.3,0.2-0.5,0.3-0.7c0-0.1,0-0.1,0.1-0.2c0-0.1,0.1-0.2,0.1-0.2c0.1-0.1,0.1-0.2,0.1-0.3
		c0.1-0.1,0.1-0.3,0.2-0.4c0.1-0.2,0.2-0.4,0.3-0.6c0-0.1,0.1-0.1,0.1-0.2c0.1-0.2,0.2-0.3,0.2-0.5L13.5,14.1z"/>
	<path class="st2" d="M12.6,16.1c0,0.1-0.1,0.1-0.1,0.2c0,0,0,0,0,0.1c0,0.1-0.1,0.1-0.1,0.2c0,0,0,0.1-0.1,0.1
		c-0.1,0.3-0.3,0.6-0.4,0.9c0,0.1-0.1,0.2-0.1,0.3c0,0.1,0,0.1-0.1,0.2c0,0.1-0.1,0.2-0.1,0.3l0.4-0.2c0.5-0.2,1.1-0.4,1.6-0.6
		c0.1-0.4,0.3-0.7,0.3-0.8c0.1-0.3,0.2-0.5,0.3-0.8c0,0,0,0,0-0.1c0.1-0.3,0.2-0.5,0.3-0.7c0-0.1,0-0.1,0.1-0.2
		c0-0.1,0.1-0.2,0.1-0.2L12.6,16.1z"/>
	<path class="st5" d="M12.3,17.6c1.2-2.8,2.6-5.8,3.3-6.7c0,0,0.1-0.1,0.1-0.1s0.1,0,0.1,0.1c0.4,0.5,1.1,1.9,1.9,3.5L12.3,17.6z
		 M21.3,22.7l0.7-0.3c0,0-0.4-1.9-1.1-4.5c-0.7-2.6-1.9-6-3.4-9.1H14c-1.6,3.1-2.7,6.5-3.4,9.1c-0.8,2.6-1.1,4.5-1.1,4.5l0.7,0.3
		c0,0,0.7-1.9,1.7-4.1c2.6-1.1,5.5-1.9,6.8-2.2C20,19.5,21.3,22.7,21.3,22.7"/>
	<path class="st6" d="M16.4,8.8c0,0,2.6,3.8,4.5,9c0,0,0,0,0,0c-0.7-2.6-1.9-6-3.4-9.1H16.4z"/>
	<path class="st1" d="M15.1,8.8c0,0-2.6,3.8-4.5,9c0,0,0,0,0,0c0.7-2.6,1.9-6,3.4-9.1H15.1z"/>
</g>
</svg>
