<?xml version="1.0" encoding="utf-8"?>
<!-- Generator: Adobe Illustrator 23.0.3, SVG Export Plug-In . SVG Version: 6.00 Build 0)  -->
<svg version="1.1" id="Layer_1" xmlns="http://www.w3.org/2000/svg" xmlns:xlink="http://www.w3.org/1999/xlink" x="0px" y="0px"
	 viewBox="0 0 31.5 31.5" style="enable-background:new 0 0 31.5 31.5;" xml:space="preserve">
<style type="text/css">
	.st0{clip-path:url(#SVGID_2_);fill:#CD8EFC;}
</style>
<g>
	<g>
		<defs>
			<rect id="SVGID_1_" x="5.2" y="8.8" width="21.1" height="13.9"/>
		</defs>
		<clipPath id="SVGID_2_">
			<use xlink:href="#SVGID_1_"  style="overflow:visible;"/>
		</clipPath>
		<path class="st0" d="M13.6,16.4h-2.2c0.4-1.4,0.9-3.3,1.1-4.3l0,0C12.8,13.2,13.4,15.4,13.6,16.4 M16.4,20.8c0.1,0,0.1,0,0.1-0.1
			l-2.9-9.9c0-0.1,0-0.1-0.1-0.1h-1.9c0,0-0.1,0-0.1,0.1c0,0.5,0,0.6-0.1,0.8l-2.6,9.2c0,0.1,0,0.1,0.1,0.1h1.4c0.1,0,0.1,0,0.1-0.1
			l0.7-2.8l0,0H14l0.8,2.8c0,0.1,0.1,0.1,0.1,0.1h1.5V20.8z M21.2,15.9c0,0,0,0.1,0,0.2c0,0-0.2,0-0.7,0l0,0h-1.9
			c0.1-0.8,0.5-1.6,1.4-1.6C20.9,14.5,21.2,15.4,21.2,15.9 M22.7,16.2c0-1.4-0.7-3.1-2.7-3.1s-3.1,1.8-3.1,4c0,2,0.9,3.8,3.3,3.8
			c0.8,0,1.4-0.1,1.9-0.4c0.1,0,0.1-0.1,0.1-0.2v-1.2c0-0.1,0-0.1-0.1-0.1c-0.5,0.2-1,0.3-1.5,0.3c-1.4,0-2-0.8-2-2.1l0,0l0,0H21
			c0.8,0,1.4,0,1.5-0.1c0.1,0,0.1,0,0.1-0.1C22.7,17,22.7,16.6,22.7,16.2"/>
	</g>
</g>
</svg>
