<?xml version="1.0" encoding="utf-8"?>
<!-- Generator: Adobe Illustrator 23.0.3, SVG Export Plug-In . SVG Version: 6.00 Build 0)  -->
<svg version="1.1" id="Layer_1" xmlns="http://www.w3.org/2000/svg" xmlns:xlink="http://www.w3.org/1999/xlink" x="0px" y="0px"
	 viewBox="0 0 31.5 31.5" style="enable-background:new 0 0 31.5 31.5;" xml:space="preserve">
<style type="text/css">
	.st0{clip-path:url(#SVGID_2_);fill:#F47B20;}
</style>
<g>
	<g>
		<defs>
			<rect id="SVGID_1_" x="9" y="8.4" width="13.6" height="13.9"/>
		</defs>
		<clipPath id="SVGID_2_">
			<use xlink:href="#SVGID_1_"  style="overflow:visible;"/>
		</clipPath>
		<path class="st0" d="M19.5,13.1c-0.1,0-0.1,0-0.1,0.1L19.5,13.1l-0.1,7.3c0,0.1,0,0.1,0.1,0.1H21c0.1,0,0.1,0,0.1-0.1v-7.2
			c0-0.1,0-0.1-0.1-0.1C21,13.1,19.5,13.1,19.5,13.1z M15.2,16.2H13c0.4-1.4,0.9-3.2,1.1-4.3l0,0C14.4,13,15,15.2,15.2,16.2
			 M18,20.5c0.1,0,0.1,0,0.1-0.1l-2.9-9.9c0-0.1,0-0.1-0.1-0.1h-1.9c0,0-0.1,0-0.1,0.1c0,0.5,0,0.6-0.1,0.8l-2.6,9.1
			c0,0.1,0,0.1,0.1,0.1h1.3c0.1,0,0.1,0,0.1-0.1l0.7-2.7l0,0h2.9l0.8,2.8c0,0.1,0.1,0.1,0.1,0.1H18V20.5z M21.2,11.1
			c0-0.6-0.4-0.9-0.9-0.9s-0.9,0.3-0.9,0.9l0,0c0,0.6,0.4,0.9,0.9,0.9C20.8,12.1,21.2,11.7,21.2,11.1"/>
	</g>
</g>
</svg>
