<?xml version="1.0" encoding="utf-8"?>
<!-- Generator: Adobe Illustrator 23.0.3, SVG Export Plug-In . SVG Version: 6.00 Build 0)  -->
<svg version="1.1" id="Layer_1" xmlns="http://www.w3.org/2000/svg" xmlns:xlink="http://www.w3.org/1999/xlink" x="0px" y="0px"
	 viewBox="0 0 31.5 31.5" style="enable-background:new 0 0 31.5 31.5;" xml:space="preserve">
<style type="text/css">
	.st0{clip-path:url(#SVGID_2_);fill:#2DE400;}
</style>
<g>
	<g>
		<defs>
			<rect id="SVGID_1_" x="5.2" y="9.1" width="21.1" height="13.9"/>
		</defs>
		<clipPath id="SVGID_2_">
			<use xlink:href="#SVGID_1_"  style="overflow:visible;"/>
		</clipPath>
		<path class="st0" d="M12.8,15.9c0,2.6-1.3,3.8-3,3.8c-0.3,0-0.5,0-0.8,0l0,0l0,0l0,0v-7.3c0.3,0,0.5,0,0.8,0
			C11.5,12.4,12.8,13.4,12.8,15.9 M14.5,15.9C14.5,13,13,11,9.8,11c-1,0-2.1,0-2.4,0c-0.1,0-0.1,0-0.1,0.1l0,0v10
			c0,0.1,0,0.1,0.1,0.1c0.4,0,1.5,0,2.3,0C11.8,21.2,14.5,20,14.5,15.9 M24.2,13.7c0-0.1,0-0.1-0.1-0.1h-1.4c-0.1,0-0.1,0-0.1,0.1
			c-0.7,3.4-0.9,4.7-1,5.7l0,0c-0.1-0.8-0.4-2.7-1-5.7c0-0.1,0-0.1-0.1-0.1h-1.6c-0.1,0-0.1,0-0.1,0.1c-0.7,3.2-1,4.8-1.1,5.6h-0.1
			c-0.1-0.7-0.3-2.4-0.9-5.7c0-0.1-0.1-0.1-0.1-0.1h-1.5c-0.1,0-0.1,0.1-0.1,0.1l1.6,7.3c0,0.1,0.1,0.1,0.2,0.1h1.5
			c0.1,0,0.1,0,0.1-0.1c0.6-2.6,1-4.5,1.2-5.6l0,0c0.2,1.3,0.6,3.1,1,5.6c0,0.1,0,0.1,0.2,0.1l0,0h1.5c0.1,0,0.1,0,0.1-0.1
			L24.2,13.7z"/>
	</g>
</g>
</svg>
