<?xml version="1.0" encoding="utf-8"?>
<!-- Generator: Adobe Illustrator 23.0.3, SVG Export Plug-In . SVG Version: 6.00 Build 0)  -->
<svg version="1.1" id="Layer_1" xmlns="http://www.w3.org/2000/svg" xmlns:xlink="http://www.w3.org/1999/xlink" x="0px" y="0px"
	 viewBox="0 0 31.5 31.5" style="enable-background:new 0 0 31.5 31.5;" xml:space="preserve">
<style type="text/css">
	.st0{clip-path:url(#SVGID_2_);fill:#EE4491;}
</style>
<g>
	<g>
		<defs>
			<rect id="SVGID_1_" x="9" y="8.4" width="13.6" height="13.9"/>
		</defs>
		<clipPath id="SVGID_2_">
			<use xlink:href="#SVGID_1_"  style="overflow:visible;"/>
		</clipPath>
		<path class="st0" d="M12.8,20.3v-9.9c0-0.1,0-0.1-0.1-0.1h-1.4c-0.1,0-0.1,0-0.1,0.1v9.9c0,0.1,0,0.1,0.1,0.1h1.4L12.8,20.3
			 M18.7,18.9C18.5,19,18.3,19,18,19c-1.1,0-1.9-0.7-1.9-2.4c0-1.5,0.8-2.4,2-2.4c0.2,0,0.4,0,0.5,0.1l0,0v4.6H18.7z M20.4,19.9
			c0-0.4,0-0.7,0-0.9v-8.7c0,0,0-0.1-0.1-0.1h-1.5c0,0-0.1,0-0.1,0.1v2.5c-0.2,0-0.3,0-0.5,0c-2.3,0-3.8,1.7-3.8,3.9l0,0
			c0,2.6,1.5,3.8,3.5,3.8c0.8,0,1.6-0.2,2.4-0.6C20.4,19.9,20.4,19.9,20.4,19.9"/>
	</g>
</g>
</svg>
