<?xml version="1.0" encoding="utf-8"?>
<!-- Generator: Adobe Illustrator 23.0.3, SVG Export Plug-In . SVG Version: 6.00 Build 0)  -->
<svg version="1.1" id="Layer_1" xmlns="http://www.w3.org/2000/svg" xmlns:xlink="http://www.w3.org/1999/xlink" x="0px" y="0px"
	 viewBox="0 0 31.5 31.5" style="enable-background:new 0 0 31.5 31.5;" xml:space="preserve">
<style type="text/css">
	.st0{clip-path:url(#SVGID_2_);fill:#05ACC1;}
	.st1{clip-path:url(#SVGID_4_);fill:#3AC2D6;}
	.st2{clip-path:url(#SVGID_6_);fill:#08848F;}
	.st3{clip-path:url(#SVGID_8_);fill:#1598A8;}
	.st4{clip-path:url(#SVGID_10_);fill:#006165;}
	.st5{clip-path:url(#SVGID_12_);fill:#08848F;}
	.st6{clip-path:url(#SVGID_14_);fill:#3AC2D6;}
</style>
<g>
	<g>
		<defs>
			<rect id="SVGID_1_" x="9" y="8.8" width="13.6" height="13.9"/>
		</defs>
		<clipPath id="SVGID_2_">
			<use xlink:href="#SVGID_1_"  style="overflow:visible;"/>
		</clipPath>
		<path class="st0" d="M16.8,14.9v0.2c0,0,1.7,1,1.7,3.3c0,1.3-1.1,2.3-2.3,2.3c-2,0-2-2-2-2v-1L11.9,18c0,0-0.3,0.2-0.3,0.6
			c0,2.2,2,4,4.3,4c2.6,0,4.3-1.7,4.3-3.9C20.1,16.8,18.7,15.3,16.8,14.9"/>
	</g>
	<g>
		<defs>
			<rect id="SVGID_3_" x="9" y="8.8" width="13.6" height="13.9"/>
		</defs>
		<clipPath id="SVGID_4_">
			<use xlink:href="#SVGID_3_"  style="overflow:visible;"/>
		</clipPath>
		<path class="st1" d="M14.1,17.8v1c0,0,0.3,1.3,1.7,1.3c2.3,0,2-2.2,2-2.3h-0.3c0,0.5-0.5,1.3-1.6,1.3
			C14.6,19.1,14.1,17.8,14.1,17.8"/>
	</g>
	<g>
		<defs>
			<rect id="SVGID_5_" x="9" y="8.8" width="13.6" height="13.9"/>
		</defs>
		<clipPath id="SVGID_6_">
			<use xlink:href="#SVGID_5_"  style="overflow:visible;"/>
		</clipPath>
		<path class="st2" d="M16.8,15.1v1.5c0.4,0.3,0.7,0.7,0.7,1.4c0,0.7-0.5,1.8-1.7,1.8c-1.3,0-1.7-1-1.7-1s-0.3,0.1-0.3,0.8
			c0,1.1,0.8,1.9,2.2,1.9s3.1-1.1,3.1-3C19.1,16.1,16.8,15.1,16.8,15.1"/>
	</g>
	<g>
		<defs>
			<rect id="SVGID_7_" x="9" y="8.8" width="13.6" height="13.9"/>
		</defs>
		<clipPath id="SVGID_8_">
			<use xlink:href="#SVGID_7_"  style="overflow:visible;"/>
		</clipPath>
		<path class="st3" d="M15.8,8.8c-0.8,0-1.7,0.3-2.4,0.7c-1.1,0.7-1.8,1.8-1.9,3.1l0,0c0,0.2,0.1,0.3,0.3,0.3l2.4,0.1
			c0-0.7,0.3-1.3,1.3-1.3s1.7,0.7,1.7,1.3c0,0.3-1.7,1.3-3.3,1.7V16c0,0,0.7,0.7,2,0.7c2.4,0,3.7-2.3,3.7-4.2
			C19.5,10.3,17.6,8.8,15.8,8.8"/>
	</g>
	<g>
		<defs>
			<rect id="SVGID_9_" x="9" y="8.8" width="13.6" height="13.9"/>
		</defs>
		<clipPath id="SVGID_10_">
			<use xlink:href="#SVGID_9_"  style="overflow:visible;"/>
		</clipPath>
		<path class="st4" d="M15.5,12.1c1.3,0,1.7,1,1.7,1c0-1.3-0.9-1.6-1.5-1.7c-0.6,0-1.5,0.3-1.5,1.7C14.2,12.4,14.8,12.1,15.5,12.1"
			/>
	</g>
	<g>
		<defs>
			<rect id="SVGID_11_" x="9" y="8.8" width="13.6" height="13.9"/>
		</defs>
		<clipPath id="SVGID_12_">
			<use xlink:href="#SVGID_11_"  style="overflow:visible;"/>
		</clipPath>
		<path class="st5" d="M15.8,16.8c2,0,2.9-0.9,2.9-0.9s-0.9,0.6-1.9,0.6c-1.2,0-1.7-0.6-1.7-0.6s-0.5,0.2-1.3,0.3
			C13.8,16.1,14.5,16.8,15.8,16.8"/>
	</g>
	<g>
		<defs>
			<rect id="SVGID_13_" x="9" y="8.8" width="13.6" height="13.9"/>
		</defs>
		<clipPath id="SVGID_14_">
			<use xlink:href="#SVGID_13_"  style="overflow:visible;"/>
		</clipPath>
		<path class="st6" d="M15.8,8.8c-0.9,0-1.7,0.3-2.4,0.7c0.2-0.1,0.7-0.4,1.7-0.4c1.2,0,3.3,0.7,3.3,3.1c0,2.5-3.3,3.5-3.3,3.5
			s0.5,0.6,1.7,0.6c1,0,1.9-0.6,1.9-0.6c0.9-0.7,1.4-1.7,1.4-2.9C20.1,10.6,18.2,8.8,15.8,8.8"/>
	</g>
</g>
</svg>
