<?xml version="1.0" encoding="utf-8"?>
<!-- Generator: Adobe Illustrator 23.0.3, SVG Export Plug-In . SVG Version: 6.00 Build 0)  -->
<svg version="1.1" id="Layer_1" xmlns="http://www.w3.org/2000/svg" xmlns:xlink="http://www.w3.org/1999/xlink" x="0px" y="0px"
	 viewBox="0 0 31.5 31.5" style="enable-background:new 0 0 31.5 31.5;" xml:space="preserve">
<style type="text/css">
	.st0{fill:#1598A8;}
	.st1{clip-path:url(#SVGID_2_);fill:#08848F;}
	.st2{clip-path:url(#SVGID_4_);fill:#08848F;}
	.st3{clip-path:url(#SVGID_6_);fill:#1598A8;}
	.st4{fill:#38BCCC;}
	.st5{fill:#85D2DD;}
</style>
<polygon class="st0" points="20.6,13.7 20.6,22.2 20.2,22.2 19.5,21.5 19.5,15.4 "/>
<g>
	<g>
		<defs>
			<rect id="SVGID_1_" x="9.5" y="8.8" width="13.6" height="13.9"/>
		</defs>
		<clipPath id="SVGID_2_">
			<use xlink:href="#SVGID_1_"  style="overflow:visible;"/>
		</clipPath>
		<path class="st1" d="M23.1,9.7c0,0-0.7,8.9-2.5,12.5h-0.4c0,0,0-3.6-0.5-6.2l-0.2-0.6l1.1-1.7L23.1,9.7z"/>
	</g>
	<g>
		<defs>
			<rect id="SVGID_3_" x="9.5" y="8.8" width="13.6" height="13.9"/>
		</defs>
		<clipPath id="SVGID_4_">
			<use xlink:href="#SVGID_3_"  style="overflow:visible;"/>
		</clipPath>
		<path class="st2" d="M12,15.4h0.7v0.4l0.4,5.7c0,0-0.7,0.7-2.9,0.7H9.5L12,15.4z"/>
	</g>
	<g>
		<defs>
			<rect id="SVGID_5_" x="9.5" y="8.8" width="13.6" height="13.9"/>
		</defs>
		<clipPath id="SVGID_6_">
			<use xlink:href="#SVGID_5_"  style="overflow:visible;"/>
		</clipPath>
		<path class="st3" d="M20.2,22.2c0,0,2.2-6.3,2.9-12.5v12.5H20.2z"/>
	</g>
</g>
<polygon class="st0" points="9.5,9.7 9.5,22.2 12.7,15.8 12.7,15.4 12.7,9.7 "/>
<polygon class="st4" points="19,9.7 14.8,19.7 14.9,19.7 17.7,19.7 23.1,9.7 "/>
<polygon class="st5" points="9.5,9.7 12.7,15.8 14.9,19.7 17.7,19.7 13.6,9.3 "/>
</svg>
