<?xml version="1.0" encoding="utf-8"?>
<!-- Generator: Adobe Illustrator 23.0.3, SVG Export Plug-In . SVG Version: 6.00 Build 0)  -->
<svg version="1.1" id="Layer_1" xmlns="http://www.w3.org/2000/svg" xmlns:xlink="http://www.w3.org/1999/xlink" x="0px" y="0px"
	 viewBox="0 0 31.5 31.5" style="enable-background:new 0 0 31.5 31.5;" xml:space="preserve">
<style type="text/css">
	.st0{fill:#9DA3F2;}
</style>
<path class="st0" d="M21.1,19.5h1.5V18h-1.5V19.5z M21.2,16.5h1.5V15h-1.5V16.5z M19.6,15h1.5v-1.5h-1.5V15z M16.6,12h1.5v-1.5h-1.5
	V12z M19.6,12h1.5v-1.5h-1.5V12z M12.1,8.9v1.5v0h-1.5V8.9H9.1v13.6l13.6,0v-1.5l0,0h-1.5v-1.5l0,0h-1.5V18l0,0h-1.5v-1.5h1.5V18
	h1.5v-1.5h-1.5V15h-1.5v1.5h-1.5V15h0h1.5v-1.5h-1.5V15v0h-1.5v-1.5h0h1.5V12h-1.5v1.5v0h-1.5V12h0h1.5v-1.5h-1.5V12v0h-1.5v-1.5h0
	h1.5V8.9H12.1z"/>
</svg>
