<?xml version="1.0" encoding="utf-8"?>
<!-- Generator: Adobe Illustrator 23.0.3, SVG Export Plug-In . SVG Version: 6.00 Build 0)  -->
<svg version="1.1" id="Layer_1" xmlns="http://www.w3.org/2000/svg" xmlns:xlink="http://www.w3.org/1999/xlink" x="0px" y="0px"
	 viewBox="0 0 31.5 31.5" style="enable-background:new 0 0 31.5 31.5;" xml:space="preserve">
<style type="text/css">
	.st0{clip-path:url(#SVGID_2_);fill:#32C5F4;}
</style>
<g>
	<g>
		<defs>
			<rect id="SVGID_1_" x="9.5" y="8.8" width="13.6" height="13.9"/>
		</defs>
		<clipPath id="SVGID_2_">
			<use xlink:href="#SVGID_1_"  style="overflow:visible;"/>
		</clipPath>
		<path class="st0" d="M15,13.8c0,1.5-1,1.8-2.1,1.8c-0.4,0-0.5,0-0.7,0l0,0l0,0l0,0v-3.5c0.2,0,0.5,0,0.9,0
			C14.3,12.1,15,12.7,15,13.8 M16.6,13.8c0-1.8-1-3.2-3.5-3.2c-0.9,0-1.8,0-2.3,0c-0.1,0-0.2,0-0.2,0.1v9.9c0,0.1,0,0.1,0.1,0.1h1.4
			c0.1,0,0.1,0,0.1-0.1v-3.5c0.2,0,0.4,0,0.7,0C15,17.1,16.6,16.1,16.6,13.8 M21.7,14.9v-1.3c0-0.1,0-0.1-0.1-0.2
			c-0.3-0.1-0.8-0.3-1.6-0.3c-1.6,0-2.5,1-2.5,2.2c0,1.1,0.5,1.7,1.8,2.3c0.9,0.5,1.1,0.8,1.1,1.1c0,0.4-0.3,0.7-1,0.7
			c-0.6,0-1.3-0.2-1.8-0.5c-0.1,0-0.1,0-0.1,0.1v1.3c0,0.1,0,0.1,0.1,0.2c0.4,0.2,1.1,0.4,1.9,0.4c1.5,0,2.6-0.8,2.6-2.3
			c0-1-0.4-1.7-1.9-2.3c-1-0.5-1.1-0.7-1.1-1.1c0-0.3,0.2-0.7,1-0.7l0,0C20.7,14.5,21.3,14.7,21.7,14.9C21.7,15,21.7,14.9,21.7,14.9
			"/>
	</g>
</g>
</svg>
