<?xml version="1.0" encoding="utf-8"?>
<!-- Generator: Adobe Illustrator 23.0.3, SVG Export Plug-In . SVG Version: 6.00 Build 0)  -->
<svg version="1.1" id="Layer_1" xmlns="http://www.w3.org/2000/svg" xmlns:xlink="http://www.w3.org/1999/xlink" x="0px" y="0px"
	 viewBox="0 0 31.5 31.5" style="enable-background:new 0 0 31.5 31.5;" xml:space="preserve">
<style type="text/css">
	.st0{clip-path:url(#SVGID_2_);fill:#EF4123;}
</style>
<g>
	<g>
		<defs>
			<rect id="SVGID_1_" x="9.5" y="8.4" width="13.6" height="13.9"/>
		</defs>
		<clipPath id="SVGID_2_">
			<use xlink:href="#SVGID_1_"  style="overflow:visible;"/>
		</clipPath>
		<path class="st0" d="M13,18.9c-1,1.7-2,2.8-2.6,2.8c-0.1,0-0.2,0-0.3-0.1s-0.2-0.3-0.1-0.4C10.1,20.5,11.2,19.6,13,18.9L13,18.9z
			 M15.2,9.3C15.3,9.1,15.5,9,15.6,9c0.4,0,0.5,0.5,0.5,0.9c0,0.7-0.2,1.7-0.5,2.8C15,11.1,14.9,9.8,15.2,9.3L15.2,9.3z M17.9,16.9
			c-0.5,0.1-1.1,0.2-1.7,0.4c-0.5,0.1-0.9,0.3-1.4,0.4c0.3-0.5,0.5-1,0.7-1.5c0.2-0.6,0.4-1.2,0.6-1.7c0.2,0.3,0.4,0.7,0.6,1
			C17.1,16.1,17.5,16.5,17.9,16.9L17.9,16.9L17.9,16.9z M22.1,17.9c-0.1,0.3-0.4,0.5-0.8,0.5c-0.1,0-0.2,0-0.3,0
			c-0.8-0.2-1.5-0.6-2.2-1.2c0.7-0.1,1.3-0.1,1.7-0.1c0.4,0,0.8,0,1,0.1C21.8,17.2,22.2,17.4,22.1,17.9L22.1,17.9L22.1,17.9z
			 M22.9,17.3c-0.4-0.4-1.2-0.7-2.4-0.7c-0.6,0-1.3,0.1-2.1,0.2c-0.4-0.4-0.9-0.9-1.3-1.5c-0.3-0.4-0.6-0.9-0.8-1.3
			c0.5-1.4,0.7-2.6,0.7-3.5c0-0.9-0.3-1.9-1.3-1.9c-0.3,0-0.6,0.2-0.8,0.5c-0.4,0.8-0.2,2.5,0.5,4.3c-0.3,0.9-0.6,1.7-1,2.6
			c-0.3,0.8-0.7,1.6-1.1,2.3c-2.2,0.9-3.6,1.9-3.8,2.8c-0.1,0.3,0,0.6,0.3,0.8c0.1,0.1,0.4,0.3,0.8,0.3c1.5,0,3-2.4,3.8-3.9
			c0.6-0.2,1.2-0.4,1.8-0.6c0.7-0.2,1.3-0.3,1.9-0.4c1.5,1.4,2.9,1.6,3.6,1.6c0.8,0,1.1-0.3,1.2-0.6C23.2,17.9,23.1,17.5,22.9,17.3
			L22.9,17.3L22.9,17.3z"/>
	</g>
</g>
</svg>
