<?xml version="1.0" encoding="utf-8"?>
<!-- Generator: Adobe Illustrator 23.0.3, SVG Export Plug-In . SVG Version: 6.00 Build 0)  -->
<svg version="1.1" id="Layer_1" xmlns="http://www.w3.org/2000/svg" xmlns:xlink="http://www.w3.org/1999/xlink" x="0px" y="0px"
	 viewBox="0 0 31.5 31.5" style="enable-background:new 0 0 31.5 31.5;" xml:space="preserve">
<style type="text/css">
	.st0{clip-path:url(#SVGID_2_);fill:#D1D3D4;}
	.st1{clip-path:url(#SVGID_2_);fill:#ED1C24;}
</style>
<g>
	<defs>
		<rect id="SVGID_1_" x="9.1" y="8.7" width="13.9" height="14.8"/>
	</defs>
	<clipPath id="SVGID_2_">
		<use xlink:href="#SVGID_1_"  style="overflow:visible;"/>
	</clipPath>
	<path class="st0" d="M13.6,16.5c0,0,0-0.1,0-0.1c0.2-0.1,1.3-0.4,2.6-1.3c0.1-0.1,0.5-0.3,0.5-0.9c-0.2-1.5-1.4-2.5-1.7-2.7
		c-0.3-0.2-0.3,0.2-0.3,0.2c-0.1,1.2-0.4,2.8-1.6,4c-0.4-0.1-0.6-0.4-0.6-0.4s1.7-2.2,1.2-3.9c-0.1-0.5-0.2-0.7-0.8-0.6
		C12.3,11,11,11.4,11,11.4s-0.2,0.1,0,0.3c0.2,0.2,0.9,1,0.3,3.1c-0.6-0.2-1.8-0.4-1.9-0.1c-0.1,0.3-0.6,1.6,0,1.6
		c1.5-0.5,3.3,0,4.7,2.5c0.1,0.2,0.3,0.2,0.3-0.1C14.3,18.5,14.3,17.4,13.6,16.5"/>
	<path class="st0" d="M22.7,15.7c-0.3,0.3-2.3,1.8-3,2c-0.7,0.2-0.9-0.2-0.8-0.3c0.1-0.1,1.7-1.8-0.1-0.9c-0.7,0.2-1.3-0.3-1.4-0.8
		c-0.3-0.9-0.3-1.1-0.9-0.5c-0.4,0.3-1,0.6-1.2,0.7c-0.7,0.2-1,1-0.4,1c0.6,0.1,0.9,0,0.7,0.2c-0.2,0.2-0.4,0.3-0.1,0.5
		c0.3,0.1,0.8,0.5,0.8,0.5c0,0,0.3,0.1,0.3-0.1c0.1-0.2,0-0.2,0-0.2c0,0,0-0.1,0.1-0.1c0.1,0,0.4-0.1,0.4-0.1c0.1,0,0.8-0.2,1,0.1
		c-0.2,0.1-0.3-0.1-0.6,0c-0.2,0.1-0.6,0.1-0.7,0.5c-0.1,0.3-0.2,1-0.8,0.8c-0.6-0.2-1.1-0.4-1-0.9c0.1-0.6,0.1-0.9-0.3-1
		c0,0.1,0.1,0.6,0,1c-0.1,0.3-0.2,0.5,0.1,0.7c0.3,0.2,2.1,1.1,3.2,2.3c0.4,0.4,0.6-0.1,0.3-0.3c-0.1-0.1-0.5-0.5-0.5-0.6
		c0-0.1,0.2,0.1,0.3,0.2c-0.2-0.5,0.3-1.1,0.8-0.4c0.2,0.2,0.1,0.7-0.1,0.8c0.2-0.2-0.2-0.7-0.4-0.4c-0.1,0.1,0.3,0.5,0.3,0.5
		c0.1,0.1,0.4-0.2,0.5-0.4c0.1-0.1,0.2-0.2,0.4-1c0.1-0.2,0.1-0.3,0.3-0.4c0.2-0.2,2.7-2.3,3-3.2C23.1,15.6,23,15.4,22.7,15.7"/>
	<path class="st1" d="M16.1,17.9c0,0-0.1-0.1-0.4-0.3c-0.1-0.2,0.1-0.2,0.2-0.2c0.1,0,0.4,0.2,0.4,0.3
		C16.3,17.9,16.1,17.9,16.1,17.9"/>
</g>
</svg>
