<?xml version="1.0" encoding="utf-8"?>
<!-- Generator: Adobe Illustrator 23.0.3, SVG Export Plug-In . SVG Version: 6.00 Build 0)  -->
<svg version="1.1" id="Layer_1" xmlns="http://www.w3.org/2000/svg" xmlns:xlink="http://www.w3.org/1999/xlink" x="0px" y="0px"
	 viewBox="0 0 31.5 31.5" style="enable-background:new 0 0 31.5 31.5;" xml:space="preserve">
<style type="text/css">
	.st0{clip-path:url(#SVGID_2_);fill:#58595B;}
</style>
<g>
	<g>
		<defs>
			<rect id="SVGID_1_" x="9" y="9.2" width="13.6" height="13.6"/>
		</defs>
		<clipPath id="SVGID_2_">
			<use xlink:href="#SVGID_1_"  style="overflow:visible;"/>
		</clipPath>
		<path class="st0" d="M13.7,18.1h-0.1c-0.3,0.1-0.6,0.1-0.9,0.2c-0.4,0.1-0.8,0.3-1.1,0.4s-0.5,0.3-0.8,0.4c-0.7,0.5-1.1,0.9-1,1.4
			l0.1,0.1c0.2,0.1,0.6,0,1.1-0.3c0.8-0.4,1.5-1,2.1-1.6C13.3,18.6,13.5,18.3,13.7,18.1 M18.8,13.6c0.1,0.1,0.3,0.1,0.6,0.1
			c0.4,0,0.6-0.1,0.8-0.2c0.1-0.1,0.1-0.1,0-0.2c-0.1-0.1-0.3-0.1-0.5-0.1s-0.4,0.1-0.7,0.2C18.9,13.5,18.8,13.6,18.8,13.6
			 M22.5,21.9c0,0.1-0.2,0.1-0.4,0c-0.3-0.2-0.7-0.4-1.2-0.8s-0.8-0.7-0.8-0.9c0-0.1,0-0.1,0-0.2l0.1-0.2c0.1-0.2,0-0.4-0.2-0.7
			c-0.1-0.1-0.3-0.2-0.4-0.3c-0.4-0.2-1-0.4-1.8-0.6C17,18,16.2,18,15.4,17.9h-0.9c-0.2,0.3-0.5,0.5-0.7,0.8
			c-0.2,0.2-0.4,0.4-0.6,0.6c-0.7,0.6-1.4,1.1-2.1,1.5c-0.9,0.5-1.6,0.6-2.1,0.4c0-0.1,0-0.1,0-0.2l0.1-0.3c0.3-0.7,0.9-1.4,1.6-1.9
			c0.1-0.1,0.1-0.1,0.2-0.1c0.6-0.4,1.4-0.9,2.3-1.3c0.6-0.3,1.2-0.5,1.6-0.6l0.4-0.5c0.2-0.2,0.3-0.4,0.5-0.6
			c0.4-0.4,0.7-0.7,1.1-1.1c0,0,0,0,0-0.1c-0.2-0.1-0.5-0.3-0.9-0.6s-0.7-0.4-0.9-0.5c-0.7-0.3-1.3-0.2-2,0.3
			c-0.4,0.3-0.6,0.6-0.7,0.9V15c0,0.1-0.3,0.3-1.1,0.6c-0.1,0-0.3,0.1-0.3,0.1c-0.2,0-0.3,0-0.3,0l0,0h-0.1
			c-0.1-0.1,0.2-0.6,0.9-1.4c0-0.1,0.1-0.1,0.1-0.2l0,0l0,0c1.2-1.3,2.7-1.8,4.4-1.5c0.5,0.1,1.2,0.4,2.3,0.8
			c0.1-0.1,0.3-0.3,0.6-0.4c0.4-0.2,0.6-0.3,0.9-0.3c0.5,0,0.8,0.2,0.9,0.6c0.1,0.2-0.1,0.6-0.5,1s-0.8,0.7-1.2,0.8
			c-0.5,0.1-1,0.1-1.6-0.2c-0.2,0.2-0.5,0.5-0.8,0.8l0,0l-0.7,0.9v0.1h0.5c0.4,0,0.7,0.1,1.1,0.2c1,0.3,1.9,0.7,2.5,1.2
			c0.3,0.2,0.6,0.5,0.9,0.8s0.6,0.7,0.9,1c0.2,0.3,0.5,0.7,0.6,1C22.5,21.3,22.6,21.6,22.5,21.9 M15.9,11.4c-0.1-0.3,0-0.5,0.2-0.8
			s0.5-0.5,0.8-0.6c0.4,0,0.7,0.2,1,0.6c0.3,0.4,0.4,0.8,0.4,1.1c0,0.2-0.3,0.3-0.9,0.4c-0.5,0-0.8,0-1-0.1
			C16.1,11.8,16,11.6,15.9,11.4"/>
	</g>
</g>
</svg>
